<svg width="225" height="68" viewBox="0 0 225 68" fill="none" xmlns="http://www.w3.org/2000/svg">
<path d="M38.5229 44V18.8H40.0709L58.0349 41.732H57.2069V18.8H59.0429V44H57.5309L39.5309 21.068H40.3589V44H38.5229ZM78.5352 44.18C76.6632 44.18 74.9232 43.868 73.3152 43.244C71.7312 42.596 70.3392 41.696 69.1392 40.544C67.9632 39.368 67.0512 38.012 66.4032 36.476C65.7552 34.916 65.4312 33.224 65.4312 31.4C65.4312 29.576 65.7552 27.896 66.4032 26.36C67.0512 24.8 67.9632 23.444 69.1392 22.292C70.3392 21.116 71.7312 20.216 73.3152 19.592C74.9232 18.944 76.6632 18.62 78.5352 18.62C80.4072 18.62 82.1352 18.944 83.7192 19.592C85.3272 20.216 86.7192 21.104 87.8952 22.256C89.0712 23.408 89.9832 24.764 90.6312 26.324C91.3032 27.86 91.6392 29.552 91.6392 31.4C91.6392 33.248 91.3032 34.952 90.6312 36.512C89.9832 38.048 89.0712 39.392 87.8952 40.544C86.7192 41.696 85.3272 42.596 83.7192 43.244C82.1352 43.868 80.4072 44.18 78.5352 44.18ZM78.5352 42.488C80.1432 42.488 81.6312 42.212 82.9992 41.66C84.3672 41.108 85.5552 40.328 86.5632 39.32C87.5712 38.312 88.3512 37.136 88.9032 35.792C89.4792 34.448 89.7672 32.984 89.7672 31.4C89.7672 29.792 89.4792 28.328 88.9032 27.008C88.3512 25.664 87.5712 24.488 86.5632 23.48C85.5552 22.472 84.3672 21.692 82.9992 21.14C81.6312 20.588 80.1432 20.312 78.5352 20.312C76.9272 20.312 75.4392 20.588 74.0712 21.14C72.7032 21.692 71.5032 22.472 70.4712 23.48C69.4632 24.488 68.6712 25.664 68.0952 27.008C67.5432 28.328 67.2672 29.792 67.2672 31.4C67.2672 32.984 67.5432 34.448 68.0952 35.792C68.6712 37.136 69.4632 38.312 70.4712 39.32C71.5032 40.328 72.7032 41.108 74.0712 41.66C75.4392 42.212 76.9272 42.488 78.5352 42.488ZM98.0072 44V18.8H107.043C109.155 18.8 110.967 19.136 112.479 19.808C113.991 20.48 115.155 21.452 115.971 22.724C116.787 23.972 117.195 25.496 117.195 27.296C117.195 29.048 116.787 30.56 115.971 31.832C115.155 33.08 113.991 34.052 112.479 34.748C110.967 35.42 109.155 35.756 107.043 35.756H99.0152L99.8432 34.892V44H98.0072ZM115.503 44L108.951 34.856H111.039L117.591 44H115.503ZM99.8432 35L99.0152 34.136H107.043C109.755 34.136 111.807 33.536 113.199 32.336C114.615 31.136 115.323 29.456 115.323 27.296C115.323 25.112 114.615 23.432 113.199 22.256C111.807 21.056 109.755 20.456 107.043 20.456H99.0152L99.8432 19.556V35ZM123.917 44V18.8H125.753V44H123.917ZM134.535 44V18.8H136.083L154.047 41.732H153.219V18.8H155.055V44H153.543L135.543 21.068H136.371V44H134.535ZM174.511 44.18C172.639 44.18 170.899 43.868 169.291 43.244C167.707 42.596 166.327 41.696 165.151 40.544C163.975 39.392 163.063 38.048 162.415 36.512C161.767 34.952 161.443 33.248 161.443 31.4C161.443 29.552 161.767 27.86 162.415 26.324C163.063 24.764 163.975 23.408 165.151 22.256C166.351 21.104 167.743 20.216 169.327 19.592C170.911 18.944 172.639 18.62 174.511 18.62C176.287 18.62 177.943 18.908 179.479 19.484C181.039 20.06 182.371 20.936 183.475 22.112L182.323 23.3C181.243 22.244 180.043 21.488 178.723 21.032C177.427 20.552 176.047 20.312 174.583 20.312C172.975 20.312 171.475 20.588 170.083 21.14C168.715 21.692 167.515 22.472 166.483 23.48C165.475 24.488 164.683 25.664 164.107 27.008C163.555 28.352 163.279 29.816 163.279 31.4C163.279 32.984 163.555 34.448 164.107 35.792C164.683 37.136 165.475 38.312 166.483 39.32C167.515 40.328 168.715 41.108 170.083 41.66C171.475 42.212 172.975 42.488 174.583 42.488C176.047 42.488 177.427 42.26 178.723 41.804C180.043 41.324 181.243 40.544 182.323 39.464L183.475 40.652C182.371 41.828 181.039 42.716 179.479 43.316C177.943 43.892 176.287 44.18 174.511 44.18ZM199.789 44.18C197.917 44.18 196.177 43.868 194.569 43.244C192.985 42.596 191.593 41.696 190.393 40.544C189.217 39.368 188.305 38.012 187.657 36.476C187.009 34.916 186.685 33.224 186.685 31.4C186.685 29.576 187.009 27.896 187.657 26.36C188.305 24.8 189.217 23.444 190.393 22.292C191.593 21.116 192.985 20.216 194.569 19.592C196.177 18.944 197.917 18.62 199.789 18.62C201.661 18.62 203.389 18.944 204.973 19.592C206.581 20.216 207.973 21.104 209.149 22.256C210.325 23.408 211.237 24.764 211.885 26.324C212.557 27.86 212.893 29.552 212.893 31.4C212.893 33.248 212.557 34.952 211.885 36.512C211.237 38.048 210.325 39.392 209.149 40.544C207.973 41.696 206.581 42.596 204.973 43.244C203.389 43.868 201.661 44.18 199.789 44.18ZM199.789 42.488C201.397 42.488 202.885 42.212 204.253 41.66C205.621 41.108 206.809 40.328 207.817 39.32C208.825 38.312 209.605 37.136 210.157 35.792C210.733 34.448 211.021 32.984 211.021 31.4C211.021 29.792 210.733 28.328 210.157 27.008C209.605 25.664 208.825 24.488 207.817 23.48C206.809 22.472 205.621 21.692 204.253 21.14C202.885 20.588 201.397 20.312 199.789 20.312C198.181 20.312 196.693 20.588 195.325 21.14C193.957 21.692 192.757 22.472 191.725 23.48C190.717 24.488 189.925 25.664 189.349 27.008C188.797 28.328 188.521 29.792 188.521 31.4C188.521 32.984 188.797 34.448 189.349 35.792C189.925 37.136 190.717 38.312 191.725 39.32C192.757 40.328 193.957 41.108 195.325 41.66C196.693 42.212 198.181 42.488 199.789 42.488Z" fill="#323132"/>
<path d="M32 19.5V43L5 0L32 19.5Z" fill="#F27060"/>
<path d="M0 57L11.2964 18L12 52L0 57Z" fill="#8A0304"/>
<path d="M31.7991 42.8846L0.385335 56.4436L11.5567 67.0081L31.7991 42.8846Z" fill="#EC1C23"/>
<path d="M17 19L5 0L11.2964 19H17Z" fill="#C10E2D"/>
</svg>
