<svg width="50" height="50" viewBox="0 0 50 50" fill="none" xmlns="http://www.w3.org/2000/svg">
<rect width="50" height="50" rx="8" fill="#1c2e5b" fill-opacity="0.24"/>
<path d="M10.833 37.7502C11.683 38.4585 12.533 39.1668 14.3747 39.1668C17.9163 39.1668 17.9163 36.3335 21.458 36.3335C23.2997 36.3335 24.1497 37.0418 24.9997 37.7502C25.8497 38.4585 26.6997 39.1668 28.5413 39.1668C32.083 39.1668 32.083 36.3335 35.6247 36.3335C37.4663 36.3335 38.3163 37.0418 39.1663 37.7502" stroke="#1C2E5B" stroke-width="2" stroke-linecap="round" stroke-linejoin="round"/>
<path d="M35.4545 36.3337C36.9784 33.7618 37.7719 30.823 37.7495 27.8337L24.9995 22.167L12.2495 27.8337C12.2495 31.942 13.5812 35.3987 16.2303 38.827" stroke="#1C2E5B" stroke-width="2" stroke-linecap="round" stroke-linejoin="round"/>
<path d="M34.9163 26.4168V17.9168C34.9163 17.1654 34.6178 16.4447 34.0865 15.9134C33.5551 15.382 32.8345 15.0835 32.083 15.0835H17.9163C17.1649 15.0835 16.4442 15.382 15.9129 15.9134C15.3815 16.4447 15.083 17.1654 15.083 17.9168V26.4168M24.9997 22.1668V27.8335M24.9997 10.8335V15.0835" stroke="#1C2E5B" stroke-width="2" stroke-linecap="round" stroke-linejoin="round"/>
</svg>
