<svg width="18" height="16" viewBox="0 0 18 16" fill="none" xmlns="http://www.w3.org/2000/svg">
<path d="M11.6816 5.85735C12.3716 5.85735 12.9316 6.41735 12.9316 7.10735V11.9281C12.9316 12.9702 12.5176 13.9696 11.7807 14.7065C11.0438 15.4434 10.0444 15.8574 9.00228 15.8574C7.96017 15.8574 6.96074 15.4434 6.22386 14.7065C5.48697 13.9696 5.073 12.9702 5.073 11.9281V7.10735C5.073 6.41735 5.63228 5.85735 6.323 5.85735H11.6816ZM1.67871 5.85735L4.80871 5.85592C4.55132 6.16608 4.39635 6.54837 4.36514 6.95021L4.358 7.10735V11.9281C4.358 12.7374 4.56585 13.4988 4.92943 14.1616C4.44008 14.3751 3.90526 14.4634 3.37326 14.4185C2.84125 14.3736 2.3288 14.1969 1.88218 13.9044C1.43555 13.6119 1.06881 13.2127 0.815053 12.743C0.561298 12.2732 0.428522 11.7477 0.428711 11.2138V7.10735C0.428901 6.77577 0.560755 6.45783 0.795289 6.22342C1.02982 5.98903 1.34712 5.85735 1.67871 5.85735ZM13.1959 5.85592L16.3216 5.85735C17.0116 5.85735 17.5716 6.41735 17.5716 7.10735V11.2145C17.5718 11.7482 17.4391 12.2735 17.1855 12.7431C16.9319 13.2127 16.5654 13.6118 16.119 13.9043C15.6726 14.1968 15.1604 14.3735 14.6286 14.4186C14.0969 14.4637 13.5622 14.3756 13.073 14.1624L13.113 14.0895C13.4194 13.5088 13.6059 12.8545 13.6401 12.1609L13.6459 11.9281V7.10735C13.6459 6.63164 13.4766 6.19592 13.1959 5.85592ZM9.00014 0.143066C9.32844 0.143066 9.65353 0.207731 9.95685 0.333368C10.2602 0.459004 10.5358 0.643153 10.7679 0.8753C11.0001 1.10745 11.1842 1.38304 11.3098 1.68636C11.4355 1.98967 11.5001 2.31476 11.5001 2.64307C11.5001 2.97137 11.4355 3.29646 11.3098 3.59977C11.1842 3.90309 11.0001 4.17869 10.7679 4.41083C10.5358 4.64298 10.2602 4.82713 9.95685 4.95276C9.65353 5.0784 9.32844 5.14307 9.00014 5.14307C8.3371 5.14307 7.70121 4.87967 7.23237 4.41083C6.76353 3.94199 6.50014 3.30611 6.50014 2.64307C6.50014 1.98003 6.76353 1.34414 7.23237 0.8753C7.70121 0.406459 8.3371 0.143066 9.00014 0.143066ZM14.7166 0.857352C14.998 0.857352 15.2766 0.912779 15.5366 1.02047C15.7966 1.12816 16.0328 1.286 16.2318 1.48498C16.4308 1.68396 16.5886 1.92019 16.6963 2.18017C16.804 2.44016 16.8594 2.71881 16.8594 3.00021C16.8594 3.28161 16.804 3.56026 16.6963 3.82025C16.5886 4.08023 16.4308 4.31646 16.2318 4.51544C16.0328 4.71442 15.7966 4.87226 15.5366 4.97995C15.2766 5.08764 14.998 5.14307 14.7166 5.14307C14.1482 5.14307 13.6032 4.9173 13.2013 4.51544C12.7995 4.11357 12.5737 3.56853 12.5737 3.00021C12.5737 2.43189 12.7995 1.88684 13.2013 1.48498C13.6032 1.08312 14.1482 0.857352 14.7166 0.857352ZM3.28371 0.857352C3.56512 0.857352 3.84376 0.912779 4.10375 1.02047C4.36373 1.12816 4.59996 1.286 4.79894 1.48498C4.99792 1.68396 5.15576 1.92019 5.26345 2.18017C5.37114 2.44016 5.42657 2.71881 5.42657 3.00021C5.42657 3.28161 5.37114 3.56026 5.26345 3.82025C5.15576 4.08023 4.99792 4.31646 4.79894 4.51544C4.59996 4.71442 4.36373 4.87226 4.10375 4.97995C3.84376 5.08764 3.56512 5.14307 3.28371 5.14307C2.71539 5.14307 2.17035 4.9173 1.76848 4.51544C1.36662 4.11357 1.14085 3.56853 1.14085 3.00021C1.14085 2.43189 1.36662 1.88684 1.76848 1.48498C2.17035 1.08312 2.71539 0.857352 3.28371 0.857352Z" fill="#1c2e5b"/>
</svg>
